<?xml version="1.0" encoding="UTF-8"?>
<svg xmlns="http://www.w3.org/2000/svg" version="1.1" width="125" height="125" viewBox="0 0 125 125"><rect x="0" y="0" width="125" height="125" fill="#ffffff"/><g transform="scale(2.049)"><g transform="translate(0,0)"><path fill-rule="evenodd" d="M11 0L11 2L10 2L10 1L9 1L9 4L8 4L8 5L10 5L10 7L9 7L9 6L8 6L8 8L6 8L6 9L8 9L8 10L9 10L9 11L8 11L8 12L6 12L6 13L5 13L5 9L4 9L4 8L2 8L2 9L0 9L0 10L1 10L1 11L0 11L0 15L1 15L1 14L2 14L2 16L4 16L4 17L3 17L3 18L1 18L1 17L0 17L0 18L1 18L1 19L0 19L0 21L2 21L2 22L0 22L0 29L1 29L1 30L4 30L4 32L0 32L0 33L1 33L1 34L2 34L2 33L3 33L3 34L4 34L4 35L5 35L5 36L3 36L3 35L0 35L0 40L2 40L2 39L3 39L3 40L5 40L5 39L4 39L4 38L5 38L5 36L6 36L6 37L7 37L7 36L9 36L9 37L8 37L8 38L6 38L6 39L8 39L8 38L11 38L11 39L9 39L9 40L8 40L8 41L9 41L9 42L6 42L6 41L7 41L7 40L6 40L6 41L5 41L5 42L4 42L4 41L0 41L0 42L2 42L2 43L4 43L4 45L5 45L5 46L2 46L2 45L3 45L3 44L2 44L2 45L0 45L0 46L1 46L1 48L2 48L2 49L3 49L3 50L2 50L2 51L0 51L0 53L4 53L4 52L5 52L5 51L7 51L7 50L8 50L8 52L6 52L6 53L8 53L8 55L10 55L10 58L9 58L9 57L8 57L8 59L9 59L9 60L10 60L10 61L12 61L12 60L10 60L10 58L11 58L11 59L13 59L13 60L14 60L14 61L16 61L16 58L17 58L17 61L18 61L18 58L20 58L20 59L22 59L22 57L23 57L23 60L22 60L22 61L23 61L23 60L24 60L24 61L26 61L26 60L27 60L27 61L28 61L28 60L29 60L29 61L30 61L30 60L31 60L31 61L32 61L32 59L33 59L33 58L34 58L34 59L36 59L36 60L35 60L35 61L36 61L36 60L37 60L37 61L39 61L39 60L41 60L41 59L42 59L42 58L43 58L43 60L42 60L42 61L44 61L44 59L45 59L45 61L46 61L46 60L47 60L47 61L50 61L50 60L51 60L51 61L52 61L52 57L54 57L54 58L53 58L53 61L55 61L55 60L57 60L57 61L61 61L61 60L59 60L59 59L60 59L60 58L61 58L61 54L59 54L59 53L57 53L57 52L55 52L55 51L59 51L59 52L60 52L60 53L61 53L61 52L60 52L60 51L59 51L59 50L61 50L61 47L60 47L60 49L58 49L58 48L59 48L59 47L57 47L57 46L56 46L56 45L55 45L55 44L54 44L54 43L56 43L56 42L54 42L54 40L56 40L56 41L57 41L57 40L56 40L56 38L57 38L57 39L59 39L59 41L58 41L58 42L57 42L57 45L59 45L59 46L61 46L61 44L58 44L58 42L59 42L59 43L61 43L61 42L59 42L59 41L60 41L60 38L59 38L59 37L61 37L61 36L59 36L59 33L60 33L60 34L61 34L61 32L58 32L58 30L57 30L57 29L59 29L59 28L60 28L60 29L61 29L61 28L60 28L60 24L61 24L61 23L60 23L60 24L59 24L59 23L58 23L58 22L57 22L57 21L60 21L60 22L61 22L61 21L60 21L60 20L58 20L58 19L59 19L59 17L60 17L60 19L61 19L61 17L60 17L60 16L61 16L61 14L60 14L60 13L61 13L61 12L59 12L59 11L57 11L57 10L58 10L58 9L57 9L57 8L56 8L56 9L57 9L57 10L56 10L56 11L55 11L55 12L54 12L54 11L52 11L52 10L50 10L50 8L52 8L52 9L53 9L53 10L55 10L55 8L52 8L52 7L53 7L53 6L52 6L52 7L51 7L51 5L52 5L52 4L53 4L53 0L51 0L51 2L49 2L49 3L48 3L48 4L50 4L50 8L49 8L49 9L48 9L48 7L49 7L49 6L48 6L48 7L47 7L47 5L46 5L46 4L43 4L43 3L42 3L42 1L43 1L43 0L41 0L41 1L38 1L38 0L37 0L37 1L38 1L38 2L36 2L36 1L35 1L35 0L34 0L34 1L32 1L32 0L31 0L31 1L30 1L30 0L28 0L28 1L29 1L29 3L28 3L28 2L25 2L25 3L27 3L27 4L28 4L28 5L26 5L26 4L25 4L25 5L24 5L24 2L23 2L23 0L22 0L22 3L23 3L23 5L24 5L24 7L23 7L23 6L22 6L22 7L21 7L21 5L20 5L20 8L19 8L19 6L18 6L18 4L21 4L21 1L20 1L20 0L17 0L17 1L20 1L20 2L18 2L18 3L17 3L17 4L16 4L16 0L14 0L14 1L13 1L13 2L12 2L12 0ZM24 0L24 1L25 1L25 0ZM26 0L26 1L27 1L27 0ZM44 0L44 1L45 1L45 2L44 2L44 3L46 3L46 2L48 2L48 1L45 1L45 0ZM49 0L49 1L50 1L50 0ZM31 1L31 2L32 2L32 1ZM13 2L13 3L12 3L12 4L13 4L13 3L14 3L14 5L13 5L13 7L12 7L12 6L11 6L11 8L9 8L9 10L10 10L10 11L9 11L9 13L6 13L6 14L8 14L8 15L6 15L6 16L7 16L7 17L5 17L5 18L4 18L4 19L3 19L3 21L4 21L4 22L2 22L2 23L1 23L1 24L2 24L2 23L3 23L3 25L2 25L2 26L3 26L3 27L4 27L4 26L7 26L7 25L8 25L8 24L10 24L10 22L9 22L9 21L11 21L11 24L12 24L12 25L13 25L13 24L14 24L14 26L13 26L13 27L14 27L14 28L13 28L13 30L14 30L14 31L11 31L11 29L12 29L12 27L10 27L10 25L9 25L9 27L6 27L6 28L9 28L9 27L10 27L10 28L11 28L11 29L10 29L10 30L9 30L9 32L10 32L10 33L9 33L9 34L10 34L10 35L9 35L9 36L10 36L10 37L11 37L11 38L13 38L13 37L11 37L11 36L12 36L12 34L13 34L13 35L14 35L14 36L16 36L16 35L15 35L15 33L16 33L16 32L14 32L14 31L15 31L15 30L14 30L14 28L15 28L15 27L14 27L14 26L15 26L15 25L16 25L16 26L17 26L17 25L16 25L16 23L17 23L17 22L16 22L16 20L17 20L17 21L18 21L18 23L19 23L19 22L21 22L21 23L20 23L20 26L21 26L21 25L22 25L22 24L23 24L23 23L26 23L26 22L23 22L23 23L22 23L22 21L20 21L20 19L21 19L21 20L26 20L26 21L27 21L27 22L28 22L28 24L25 24L25 27L24 27L24 26L22 26L22 27L21 27L21 28L20 28L20 27L19 27L19 24L18 24L18 27L16 27L16 29L17 29L17 30L16 30L16 31L17 31L17 32L19 32L19 33L20 33L20 32L19 32L19 29L20 29L20 30L21 30L21 32L22 32L22 33L21 33L21 34L22 34L22 37L21 37L21 36L17 36L17 38L18 38L18 40L17 40L17 41L16 41L16 43L15 43L15 44L14 44L14 40L16 40L16 39L14 39L14 40L12 40L12 39L11 39L11 40L9 40L9 41L10 41L10 42L11 42L11 43L10 43L10 44L9 44L9 43L6 43L6 44L5 44L5 45L6 45L6 46L5 46L5 47L3 47L3 48L4 48L4 50L5 50L5 49L6 49L6 50L7 50L7 49L6 49L6 48L7 48L7 47L6 47L6 46L7 46L7 45L6 45L6 44L9 44L9 47L10 47L10 48L12 48L12 47L10 47L10 46L12 46L12 45L13 45L13 44L14 44L14 45L15 45L15 44L16 44L16 45L18 45L18 44L20 44L20 43L22 43L22 44L21 44L21 45L20 45L20 46L21 46L21 48L20 48L20 47L16 47L16 46L14 46L14 47L13 47L13 49L8 49L8 50L11 50L11 51L12 51L12 52L10 52L10 51L9 51L9 52L8 52L8 53L9 53L9 54L10 54L10 55L12 55L12 54L13 54L13 55L15 55L15 56L16 56L16 55L17 55L17 56L21 56L21 55L23 55L23 57L24 57L24 59L25 59L25 57L27 57L27 54L28 54L28 52L29 52L29 51L27 51L27 50L30 50L30 51L31 51L31 52L32 52L32 51L34 51L34 52L35 52L35 51L34 51L34 50L39 50L39 51L38 51L38 53L41 53L41 54L43 54L43 53L44 53L44 55L43 55L43 57L44 57L44 58L48 58L48 59L47 59L47 60L50 60L50 58L51 58L51 57L50 57L50 55L51 55L51 56L52 56L52 52L51 52L51 51L52 51L52 50L54 50L54 51L55 51L55 49L57 49L57 50L58 50L58 49L57 49L57 48L56 48L56 46L54 46L54 47L55 47L55 49L54 49L54 48L53 48L53 49L51 49L51 47L50 47L50 46L51 46L51 45L52 45L52 43L53 43L53 41L52 41L52 39L53 39L53 38L54 38L54 39L55 39L55 37L57 37L57 38L58 38L58 37L59 37L59 36L58 36L58 37L57 37L57 35L58 35L58 32L57 32L57 33L56 33L56 36L55 36L55 33L54 33L54 34L53 34L53 33L52 33L52 28L53 28L53 27L54 27L54 28L59 28L59 27L57 27L57 26L59 26L59 24L58 24L58 25L57 25L57 22L56 22L56 21L57 21L57 18L58 18L58 17L59 17L59 16L60 16L60 14L59 14L59 12L58 12L58 14L55 14L55 13L57 13L57 12L55 12L55 13L54 13L54 14L55 14L55 15L52 15L52 14L53 14L53 12L52 12L52 11L50 11L50 10L49 10L49 11L48 11L48 12L49 12L49 11L50 11L50 13L52 13L52 14L50 14L50 15L51 15L51 17L50 17L50 16L47 16L47 17L48 17L48 18L45 18L45 17L46 17L46 14L48 14L48 15L49 15L49 13L46 13L46 14L45 14L45 15L44 15L44 13L45 13L45 12L46 12L46 11L47 11L47 8L45 8L45 7L46 7L46 5L44 5L44 6L43 6L43 7L44 7L44 9L45 9L45 10L46 10L46 11L44 11L44 13L41 13L41 12L42 12L42 11L43 11L43 9L42 9L42 5L43 5L43 4L42 4L42 3L41 3L41 2L38 2L38 3L41 3L41 4L42 4L42 5L40 5L40 4L38 4L38 5L40 5L40 6L39 6L39 7L38 7L38 6L37 6L37 3L35 3L35 2L34 2L34 3L35 3L35 4L33 4L33 5L35 5L35 9L36 9L36 11L35 11L35 10L34 10L34 8L33 8L33 9L31 9L31 10L30 10L30 9L29 9L29 10L30 10L30 13L29 13L29 14L28 14L28 13L27 13L27 11L28 11L28 6L27 6L27 7L26 7L26 6L25 6L25 7L24 7L24 9L25 9L25 8L26 8L26 10L27 10L27 11L25 11L25 12L24 12L24 13L23 13L23 14L22 14L22 15L21 15L21 13L22 13L22 12L23 12L23 11L22 11L22 10L23 10L23 9L22 9L22 8L20 8L20 9L18 9L18 6L17 6L17 5L16 5L16 4L15 4L15 2ZM30 3L30 4L32 4L32 3ZM51 3L51 4L52 4L52 3ZM10 4L10 5L11 5L11 4ZM29 5L29 8L32 8L32 5ZM14 6L14 7L15 7L15 6ZM16 6L16 7L17 7L17 6ZM30 6L30 7L31 7L31 6ZM33 6L33 7L34 7L34 6ZM36 6L36 7L37 7L37 6ZM40 6L40 7L39 7L39 8L36 8L36 9L39 9L39 10L38 10L38 11L37 11L37 12L38 12L38 13L40 13L40 12L41 12L41 11L42 11L42 9L41 9L41 8L40 8L40 7L41 7L41 6ZM44 6L44 7L45 7L45 6ZM11 8L11 9L12 9L12 10L11 10L11 12L10 12L10 13L13 13L13 14L14 14L14 13L13 13L13 12L14 12L14 11L13 11L13 12L12 12L12 10L13 10L13 8ZM17 9L17 10L18 10L18 11L17 11L17 12L16 12L16 10L15 10L15 12L16 12L16 14L15 14L15 15L14 15L14 16L13 16L13 15L12 15L12 17L11 17L11 18L12 18L12 19L13 19L13 17L14 17L14 16L15 16L15 18L16 18L16 19L14 19L14 20L13 20L13 21L12 21L12 24L13 24L13 23L16 23L16 22L15 22L15 21L14 21L14 20L16 20L16 19L17 19L17 18L16 18L16 17L17 17L17 16L18 16L18 15L19 15L19 17L20 17L20 18L22 18L22 17L23 17L23 18L26 18L26 20L27 20L27 21L28 21L28 20L29 20L29 21L30 21L30 22L29 22L29 23L30 23L30 24L31 24L31 20L33 20L33 21L32 21L32 25L30 25L30 26L29 26L29 27L27 27L27 25L26 25L26 27L25 27L25 28L24 28L24 27L23 27L23 29L22 29L22 30L23 30L23 29L24 29L24 35L23 35L23 38L21 38L21 39L20 39L20 38L19 38L19 40L18 40L18 41L17 41L17 44L18 44L18 42L19 42L19 40L21 40L21 39L23 39L23 40L22 40L22 41L23 41L23 40L24 40L24 41L25 41L25 42L23 42L23 43L25 43L25 44L27 44L27 46L26 46L26 45L24 45L24 44L22 44L22 47L24 47L24 46L25 46L25 48L26 48L26 50L27 50L27 49L29 49L29 48L28 48L28 47L27 47L27 46L29 46L29 47L30 47L30 46L32 46L32 45L33 45L33 47L34 47L34 49L32 49L32 50L34 50L34 49L38 49L38 48L39 48L39 47L40 47L40 48L41 48L41 47L40 47L40 46L39 46L39 45L41 45L41 46L44 46L44 47L43 47L43 48L42 48L42 49L43 49L43 51L42 51L42 52L44 52L44 53L45 53L45 54L47 54L47 55L48 55L48 54L47 54L47 52L46 52L46 51L47 51L47 50L49 50L49 51L48 51L48 52L49 52L49 53L51 53L51 52L50 52L50 50L51 50L51 49L50 49L50 48L47 48L47 50L46 50L46 49L45 49L45 51L44 51L44 47L46 47L46 46L44 46L44 43L43 43L43 42L42 42L42 41L45 41L45 44L46 44L46 45L47 45L47 43L46 43L46 41L47 41L47 38L46 38L46 36L47 36L47 37L50 37L50 38L49 38L49 39L48 39L48 40L49 40L49 39L51 39L51 38L52 38L52 35L53 35L53 36L54 36L54 35L53 35L53 34L52 34L52 33L51 33L51 34L52 34L52 35L50 35L50 34L49 34L49 33L50 33L50 32L51 32L51 31L50 31L50 32L49 32L49 33L48 33L48 31L49 31L49 30L48 30L48 29L47 29L47 28L46 28L46 26L45 26L45 25L47 25L47 26L49 26L49 27L48 27L48 28L49 28L49 29L51 29L51 28L52 28L52 24L55 24L55 27L56 27L56 22L55 22L55 21L56 21L56 20L55 20L55 21L53 21L53 23L52 23L52 24L51 24L51 25L50 25L50 23L51 23L51 22L52 22L52 18L54 18L54 19L53 19L53 20L54 20L54 19L55 19L55 18L54 18L54 17L51 17L51 22L50 22L50 19L49 19L49 18L48 18L48 20L49 20L49 21L47 21L47 19L44 19L44 18L42 18L42 16L43 16L43 17L45 17L45 16L44 16L44 15L41 15L41 14L38 14L38 15L39 15L39 16L38 16L38 17L39 17L39 16L40 16L40 17L41 17L41 18L37 18L37 19L36 19L36 20L37 20L37 19L39 19L39 20L38 20L38 21L39 21L39 24L37 24L37 22L36 22L36 21L35 21L35 22L34 22L34 19L33 19L33 18L36 18L36 17L37 17L37 15L36 15L36 12L33 12L33 11L32 11L32 10L31 10L31 14L30 14L30 15L31 15L31 16L33 16L33 17L32 17L32 18L31 18L31 17L30 17L30 16L29 16L29 15L28 15L28 14L27 14L27 13L26 13L26 12L25 12L25 13L24 13L24 14L23 14L23 16L22 16L22 17L21 17L21 15L20 15L20 13L19 13L19 14L18 14L18 15L17 15L17 13L18 13L18 11L19 11L19 10L18 10L18 9ZM20 9L20 11L21 11L21 12L22 12L22 11L21 11L21 9ZM60 9L60 10L61 10L61 9ZM3 10L3 11L1 11L1 12L3 12L3 13L2 13L2 14L3 14L3 13L4 13L4 14L5 14L5 13L4 13L4 10ZM6 10L6 11L7 11L7 10ZM38 11L38 12L39 12L39 11ZM34 13L34 14L35 14L35 13ZM31 14L31 15L32 15L32 14ZM58 14L58 15L59 15L59 14ZM4 15L4 16L5 16L5 15ZM9 15L9 17L8 17L8 18L6 18L6 19L5 19L5 21L8 21L8 19L10 19L10 18L9 18L9 17L10 17L10 16L11 16L11 15ZM24 15L24 16L23 16L23 17L24 17L24 16L26 16L26 18L29 18L29 19L30 19L30 17L28 17L28 15L27 15L27 16L26 16L26 15ZM34 15L34 17L35 17L35 15ZM55 16L55 17L56 17L56 18L57 18L57 16ZM41 18L41 19L40 19L40 20L39 20L39 21L40 21L40 20L42 20L42 18ZM6 19L6 20L7 20L7 19ZM18 19L18 21L19 21L19 19ZM27 19L27 20L28 20L28 19ZM43 19L43 22L40 22L40 25L41 25L41 26L39 26L39 25L37 25L37 24L36 24L36 23L35 23L35 24L34 24L34 25L32 25L32 26L34 26L34 25L35 25L35 27L33 27L33 31L35 31L35 30L36 30L36 32L35 32L35 33L34 33L34 32L33 32L33 33L32 33L32 34L30 34L30 36L33 36L33 37L32 37L32 40L31 40L31 41L30 41L30 40L28 40L28 39L27 39L27 40L26 40L26 37L25 37L25 39L24 39L24 38L23 38L23 39L24 39L24 40L25 40L25 41L26 41L26 42L25 42L25 43L26 43L26 42L27 42L27 43L28 43L28 45L29 45L29 46L30 46L30 45L31 45L31 44L30 44L30 45L29 45L29 43L30 43L30 42L31 42L31 43L32 43L32 42L33 42L33 43L34 43L34 44L33 44L33 45L34 45L34 44L36 44L36 45L37 45L37 44L38 44L38 45L39 45L39 44L42 44L42 45L43 45L43 44L42 44L42 42L40 42L40 41L41 41L41 40L45 40L45 41L46 41L46 38L44 38L44 39L41 39L41 38L40 38L40 35L39 35L39 34L41 34L41 33L40 33L40 32L41 32L41 31L43 31L43 32L42 32L42 33L45 33L45 35L44 35L44 34L42 34L42 35L41 35L41 37L42 37L42 38L43 38L43 37L45 37L45 35L47 35L47 36L50 36L50 35L49 35L49 34L48 34L48 35L47 35L47 33L46 33L46 32L47 32L47 30L46 30L46 32L44 32L44 30L45 30L45 29L46 29L46 28L45 28L45 26L44 26L44 25L45 25L45 24L49 24L49 22L48 22L48 23L47 23L47 21L45 21L45 20L44 20L44 19ZM5 22L5 23L4 23L4 25L7 25L7 24L5 24L5 23L9 23L9 22ZM33 22L33 23L34 23L34 22ZM43 22L43 23L41 23L41 24L43 24L43 25L44 25L44 22ZM54 22L54 23L55 23L55 22ZM28 24L28 25L29 25L29 24ZM35 24L35 25L36 25L36 24ZM36 26L36 28L37 28L37 29L36 29L36 30L37 30L37 31L38 31L38 32L36 32L36 33L35 33L35 34L36 34L36 36L37 36L37 37L35 37L35 35L33 35L33 36L34 36L34 38L33 38L33 40L34 40L34 41L33 41L33 42L34 42L34 43L35 43L35 39L39 39L39 40L38 40L38 41L37 41L37 43L38 43L38 41L40 41L40 38L39 38L39 36L37 36L37 34L36 34L36 33L38 33L38 34L39 34L39 32L40 32L40 31L41 31L41 30L40 30L40 31L39 31L39 30L37 30L37 29L38 29L38 28L40 28L40 29L41 29L41 28L40 28L40 27L39 27L39 26ZM43 26L43 27L42 27L42 29L43 29L43 30L44 30L44 29L45 29L45 28L44 28L44 26ZM50 26L50 27L49 27L49 28L51 28L51 26ZM1 27L1 29L2 29L2 27ZM18 27L18 29L19 29L19 27ZM26 27L26 28L25 28L25 29L26 29L26 30L25 30L25 31L26 31L26 30L28 30L28 29L26 29L26 28L27 28L27 27ZM29 27L29 28L30 28L30 27ZM31 27L31 28L32 28L32 27ZM37 27L37 28L38 28L38 27ZM5 29L5 32L8 32L8 29ZM29 29L29 32L32 32L32 29ZM53 29L53 32L56 32L56 29ZM6 30L6 31L7 31L7 30ZM17 30L17 31L18 31L18 30ZM30 30L30 31L31 31L31 30ZM54 30L54 31L55 31L55 30ZM59 30L59 31L61 31L61 30ZM12 32L12 33L11 33L11 34L12 34L12 33L13 33L13 34L14 34L14 33L13 33L13 32ZM25 32L25 33L28 33L28 32ZM6 33L6 34L5 34L5 35L6 35L6 36L7 36L7 35L8 35L8 33ZM6 34L6 35L7 35L7 34ZM17 34L17 35L19 35L19 34ZM25 34L25 36L26 36L26 35L27 35L27 34ZM28 34L28 35L29 35L29 34ZM2 36L2 37L1 37L1 38L4 38L4 37L3 37L3 36ZM27 36L27 38L29 38L29 39L31 39L31 37L28 37L28 36ZM42 36L42 37L43 37L43 36ZM14 37L14 38L16 38L16 37ZM37 37L37 38L38 38L38 37ZM34 38L34 39L35 39L35 38ZM28 41L28 42L29 42L29 41ZM51 41L51 43L50 43L50 45L48 45L48 46L47 46L47 47L48 47L48 46L50 46L50 45L51 45L51 43L52 43L52 41ZM48 42L48 44L49 44L49 42ZM0 43L0 44L1 44L1 43ZM11 43L11 44L10 44L10 45L12 45L12 43ZM36 46L36 47L35 47L35 48L37 48L37 47L38 47L38 46ZM52 46L52 47L53 47L53 46ZM5 47L5 48L6 48L6 47ZM14 47L14 49L13 49L13 50L14 50L14 51L15 51L15 52L12 52L12 53L13 53L13 54L15 54L15 53L17 53L17 52L16 52L16 51L15 51L15 48L16 48L16 49L20 49L20 50L21 50L21 51L22 51L22 52L23 52L23 53L22 53L22 54L23 54L23 53L25 53L25 52L26 52L26 54L25 54L25 56L24 56L24 57L25 57L25 56L26 56L26 54L27 54L27 52L26 52L26 51L24 51L24 48L23 48L23 51L22 51L22 49L20 49L20 48L16 48L16 47ZM26 47L26 48L27 48L27 47ZM30 48L30 49L31 49L31 48ZM0 49L0 50L1 50L1 49ZM39 49L39 50L40 50L40 51L39 51L39 52L41 52L41 49ZM17 50L17 51L19 51L19 52L18 52L18 53L19 53L19 55L20 55L20 51L19 51L19 50ZM3 51L3 52L4 52L4 51ZM23 51L23 52L24 52L24 51ZM36 51L36 53L37 53L37 51ZM10 53L10 54L11 54L11 53ZM29 53L29 56L32 56L32 53ZM33 53L33 57L34 57L34 58L35 58L35 57L34 57L34 54L35 54L35 55L36 55L36 57L37 57L37 58L36 58L36 59L37 59L37 58L38 58L38 57L39 57L39 56L42 56L42 55L39 55L39 54L38 54L38 55L37 55L37 54L35 54L35 53ZM53 53L53 56L56 56L56 53ZM17 54L17 55L18 55L18 54ZM30 54L30 55L31 55L31 54ZM49 54L49 55L50 55L50 54ZM54 54L54 55L55 55L55 54ZM58 54L58 56L57 56L57 57L55 57L55 58L54 58L54 60L55 60L55 58L58 58L58 59L57 59L57 60L58 60L58 59L59 59L59 58L60 58L60 57L58 57L58 56L59 56L59 54ZM44 55L44 56L45 56L45 57L48 57L48 56L45 56L45 55ZM11 57L11 58L12 58L12 57ZM14 57L14 58L13 58L13 59L14 59L14 60L15 60L15 58L16 58L16 57ZM17 57L17 58L18 58L18 57ZM20 57L20 58L21 58L21 57ZM49 57L49 58L50 58L50 57ZM26 58L26 59L27 59L27 58ZM38 59L38 60L39 60L39 59ZM0 0L0 7L7 7L7 0ZM1 1L1 6L6 6L6 1ZM2 2L2 5L5 5L5 2ZM54 0L54 7L61 7L61 0ZM55 1L55 6L60 6L60 1ZM56 2L56 5L59 5L59 2ZM0 54L0 61L7 61L7 54ZM1 55L1 60L6 60L6 55ZM2 56L2 59L5 59L5 56Z" fill="#000000"/></g></g></svg>
