<?xml version="1.0" encoding="UTF-8"?>
<svg xmlns="http://www.w3.org/2000/svg" version="1.1" width="125" height="125" viewBox="0 0 125 125"><rect x="0" y="0" width="125" height="125" fill="#ffffff"/><g transform="scale(1.923)"><g transform="translate(0,0)"><path fill-rule="evenodd" d="M11 0L11 1L10 1L10 2L9 2L9 4L8 4L8 5L9 5L9 6L8 6L8 8L6 8L6 9L7 9L7 10L6 10L6 11L7 11L7 10L9 10L9 9L10 9L10 10L11 10L11 9L12 9L12 7L13 7L13 8L16 8L16 7L17 7L17 1L19 1L19 2L18 2L18 4L19 4L19 5L20 5L20 8L22 8L22 7L23 7L23 9L21 9L21 10L19 10L19 8L18 8L18 9L14 9L14 11L15 11L15 10L19 10L19 11L16 11L16 12L15 12L15 16L14 16L14 14L13 14L13 15L12 15L12 14L11 14L11 15L9 15L9 16L8 16L8 17L7 17L7 16L5 16L5 17L4 17L4 18L3 18L3 19L4 19L4 18L5 18L5 20L4 20L4 21L2 21L2 16L1 16L1 15L2 15L2 14L3 14L3 16L4 16L4 14L5 14L5 11L4 11L4 12L3 12L3 9L4 9L4 8L2 8L2 13L1 13L1 15L0 15L0 17L1 17L1 19L0 19L0 25L2 25L2 22L4 22L4 23L3 23L3 24L4 24L4 25L3 25L3 26L1 26L1 27L2 27L2 28L3 28L3 29L2 29L2 33L3 33L3 35L0 35L0 36L3 36L3 37L4 37L4 36L5 36L5 37L8 37L8 38L9 38L9 39L8 39L8 40L5 40L5 41L3 41L3 40L4 40L4 38L3 38L3 39L2 39L2 38L1 38L1 37L0 37L0 39L2 39L2 41L1 41L1 40L0 40L0 42L1 42L1 43L0 43L0 44L1 44L1 45L2 45L2 44L4 44L4 45L5 45L5 46L4 46L4 47L3 47L3 46L1 46L1 47L0 47L0 49L2 49L2 48L1 48L1 47L3 47L3 48L4 48L4 49L5 49L5 50L3 50L3 51L1 51L1 53L0 53L0 54L1 54L1 53L2 53L2 55L3 55L3 56L1 56L1 55L0 55L0 56L1 56L1 57L3 57L3 56L4 56L4 57L5 57L5 56L4 56L4 54L3 54L3 51L4 51L4 52L5 52L5 50L6 50L6 51L7 51L7 52L6 52L6 53L5 53L5 55L8 55L8 56L9 56L9 57L8 57L8 59L9 59L9 60L11 60L11 61L10 61L10 62L11 62L11 63L9 63L9 61L8 61L8 63L9 63L9 64L11 64L11 63L12 63L12 64L13 64L13 65L14 65L14 64L15 64L15 63L16 63L16 62L15 62L15 63L14 63L14 61L16 61L16 60L17 60L17 61L18 61L18 60L19 60L19 62L18 62L18 64L21 64L21 65L22 65L22 64L23 64L23 65L25 65L25 64L26 64L26 63L25 63L25 62L24 62L24 61L26 61L26 62L28 62L28 61L26 61L26 60L27 60L27 59L25 59L25 58L24 58L24 57L23 57L23 56L21 56L21 57L17 57L17 58L13 58L13 57L14 57L14 56L15 56L15 57L16 57L16 56L15 56L15 55L14 55L14 54L15 54L15 53L14 53L14 54L13 54L13 55L12 55L12 53L11 53L11 50L13 50L13 49L12 49L12 48L13 48L13 47L14 47L14 48L15 48L15 46L13 46L13 45L12 45L12 46L13 46L13 47L12 47L12 48L11 48L11 45L9 45L9 44L12 44L12 43L11 43L11 42L14 42L14 41L15 41L15 39L16 39L16 38L15 38L15 39L14 39L14 36L15 36L15 37L16 37L16 36L15 36L15 35L14 35L14 34L16 34L16 35L21 35L21 34L22 34L22 36L18 36L18 37L17 37L17 40L16 40L16 42L15 42L15 44L18 44L18 43L17 43L17 42L19 42L19 41L20 41L20 43L21 43L21 44L20 44L20 45L19 45L19 47L18 47L18 49L17 49L17 47L16 47L16 49L17 49L17 50L18 50L18 51L16 51L16 50L15 50L15 49L14 49L14 51L12 51L12 52L18 52L18 54L16 54L16 55L17 55L17 56L18 56L18 55L19 55L19 54L20 54L20 53L22 53L22 55L24 55L24 56L25 56L25 57L26 57L26 58L27 58L27 56L28 56L28 60L29 60L29 61L31 61L31 62L29 62L29 64L30 64L30 65L31 65L31 64L33 64L33 65L37 65L37 64L38 64L38 63L39 63L39 64L43 64L43 65L45 65L45 64L43 64L43 63L44 63L44 60L42 60L42 61L40 61L40 57L39 57L39 56L38 56L38 58L39 58L39 59L38 59L38 60L39 60L39 61L37 61L37 62L38 62L38 63L36 63L36 62L35 62L35 63L34 63L34 62L33 62L33 61L36 61L36 60L37 60L37 59L36 59L36 60L35 60L35 57L37 57L37 56L35 56L35 55L34 55L34 53L36 53L36 54L38 54L38 53L39 53L39 55L40 55L40 56L43 56L43 55L40 55L40 53L39 53L39 52L41 52L41 53L42 53L42 54L44 54L44 53L45 53L45 55L44 55L44 56L46 56L46 57L48 57L48 58L47 58L47 59L48 59L48 62L47 62L47 60L46 60L46 59L45 59L45 58L44 58L44 59L45 59L45 62L46 62L46 63L48 63L48 64L49 64L49 63L50 63L50 62L51 62L51 60L53 60L53 61L52 61L52 63L53 63L53 62L54 62L54 63L56 63L56 61L57 61L57 62L61 62L61 61L62 61L62 60L61 60L61 59L63 59L63 61L65 61L65 59L64 59L64 57L65 57L65 56L64 56L64 57L62 57L62 56L63 56L63 55L61 55L61 54L62 54L62 53L64 53L64 54L65 54L65 53L64 53L64 51L65 51L65 50L63 50L63 49L64 49L64 48L65 48L65 47L63 47L63 46L65 46L65 44L64 44L64 43L63 43L63 42L65 42L65 41L63 41L63 40L65 40L65 38L63 38L63 37L64 37L64 36L65 36L65 35L63 35L63 32L64 32L64 34L65 34L65 31L62 31L62 28L61 28L61 27L63 27L63 29L64 29L64 30L65 30L65 26L61 26L61 27L60 27L60 25L61 25L61 24L59 24L59 23L58 23L58 22L55 22L55 21L59 21L59 22L60 22L60 23L61 23L61 22L62 22L62 23L63 23L63 25L64 25L64 21L65 21L65 20L64 20L64 21L62 21L62 20L63 20L63 19L65 19L65 17L63 17L63 16L62 16L62 14L63 14L63 15L64 15L64 16L65 16L65 14L63 14L63 12L64 12L64 13L65 13L65 12L64 12L64 10L62 10L62 9L61 9L61 8L60 8L60 10L59 10L59 11L57 11L57 10L56 10L56 8L57 8L57 9L59 9L59 8L57 8L57 6L56 6L56 8L55 8L55 9L54 9L54 7L55 7L55 5L54 5L54 4L56 4L56 5L57 5L57 4L56 4L56 3L57 3L57 1L56 1L56 0L55 0L55 1L56 1L56 3L55 3L55 2L54 2L54 3L53 3L53 5L54 5L54 7L53 7L53 6L52 6L52 5L51 5L51 3L52 3L52 2L53 2L53 1L52 1L52 2L51 2L51 1L50 1L50 0L48 0L48 2L49 2L49 3L47 3L47 5L46 5L46 2L45 2L45 0L41 0L41 1L44 1L44 2L45 2L45 5L44 5L44 4L41 4L41 3L40 3L40 1L37 1L37 0L36 0L36 2L34 2L34 1L35 1L35 0L34 0L34 1L32 1L32 0L28 0L28 1L29 1L29 2L28 2L28 3L27 3L27 6L26 6L26 7L25 7L25 6L24 6L24 7L23 7L23 6L22 6L22 7L21 7L21 5L20 5L20 4L22 4L22 5L23 5L23 4L22 4L22 2L23 2L23 3L24 3L24 4L25 4L25 5L26 5L26 4L25 4L25 3L26 3L26 2L27 2L27 1L26 1L26 0L23 0L23 1L21 1L21 0L20 0L20 1L19 1L19 0L14 0L14 1L13 1L13 2L12 2L12 0ZM14 1L14 2L15 2L15 5L16 5L16 1ZM23 1L23 2L25 2L25 1ZM31 1L31 2L32 2L32 1ZM49 1L49 2L50 2L50 3L49 3L49 4L48 4L48 5L47 5L47 7L46 7L46 5L45 5L45 8L47 8L47 7L48 7L48 9L46 9L46 10L48 10L48 12L49 12L49 13L47 13L47 12L46 12L46 11L45 11L45 10L44 10L44 6L43 6L43 5L41 5L41 4L40 4L40 3L39 3L39 2L38 2L38 4L40 4L40 5L39 5L39 7L40 7L40 5L41 5L41 7L42 7L42 8L40 8L40 9L41 9L41 10L44 10L44 11L43 11L43 12L44 12L44 13L43 13L43 14L42 14L42 16L40 16L40 15L39 15L39 14L40 14L40 13L42 13L42 11L41 11L41 12L40 12L40 10L38 10L38 8L37 8L37 7L38 7L38 6L37 6L37 7L36 7L36 6L35 6L35 7L36 7L36 8L37 8L37 9L36 9L36 10L35 10L35 9L34 9L34 14L36 14L36 15L37 15L37 16L36 16L36 17L35 17L35 16L34 16L34 18L35 18L35 19L34 19L34 20L33 20L33 21L30 21L30 19L31 19L31 18L32 18L32 19L33 19L33 18L32 18L32 17L33 17L33 15L32 15L32 14L33 14L33 12L32 12L32 11L33 11L33 9L31 9L31 11L29 11L29 10L30 10L30 8L29 8L29 9L28 9L28 6L29 6L29 7L30 7L30 4L29 4L29 3L30 3L30 2L29 2L29 3L28 3L28 4L29 4L29 5L28 5L28 6L27 6L27 7L26 7L26 8L24 8L24 10L23 10L23 11L22 11L22 12L21 12L21 11L20 11L20 12L19 12L19 13L18 13L18 12L17 12L17 13L16 13L16 14L17 14L17 15L18 15L18 14L23 14L23 15L22 15L22 16L24 16L24 17L23 17L23 20L24 20L24 21L23 21L23 23L22 23L22 22L21 22L21 21L20 21L20 20L19 20L19 21L18 21L18 20L16 20L16 19L15 19L15 17L14 17L14 16L11 16L11 18L12 18L12 17L14 17L14 19L15 19L15 21L14 21L14 20L13 20L13 22L12 22L12 21L10 21L10 22L9 22L9 21L8 21L8 20L10 20L10 17L9 17L9 19L8 19L8 18L7 18L7 17L5 17L5 18L7 18L7 19L6 19L6 20L7 20L7 21L6 21L6 22L7 22L7 23L4 23L4 24L5 24L5 25L6 25L6 26L4 26L4 27L3 27L3 28L5 28L5 29L3 29L3 30L5 30L5 29L6 29L6 30L7 30L7 29L6 29L6 28L7 28L7 27L6 27L6 26L7 26L7 25L8 25L8 24L7 24L7 23L10 23L10 24L12 24L12 25L11 25L11 26L12 26L12 27L13 27L13 26L14 26L14 23L15 23L15 25L18 25L18 24L19 24L19 25L21 25L21 24L19 24L19 22L20 22L20 23L22 23L22 25L23 25L23 26L24 26L24 27L25 27L25 29L26 29L26 30L23 30L23 31L20 31L20 30L21 30L21 28L20 28L20 27L21 27L21 26L20 26L20 27L19 27L19 26L18 26L18 28L17 28L17 31L16 31L16 30L15 30L15 27L14 27L14 29L13 29L13 28L10 28L10 27L9 27L9 28L8 28L8 29L9 29L9 30L10 30L10 29L13 29L13 30L11 30L11 31L12 31L12 32L9 32L9 34L10 34L10 36L11 36L11 38L10 38L10 39L12 39L12 40L13 40L13 41L14 41L14 40L13 40L13 38L12 38L12 37L13 37L13 34L14 34L14 32L13 32L13 31L16 31L16 32L15 32L15 33L18 33L18 34L21 34L21 32L22 32L22 33L24 33L24 34L25 34L25 35L24 35L24 36L29 36L29 35L30 35L30 36L32 36L32 37L29 37L29 38L28 38L28 37L26 37L26 38L24 38L24 37L23 37L23 38L24 38L24 39L23 39L23 40L22 40L22 41L21 41L21 43L23 43L23 45L22 45L22 46L24 46L24 47L21 47L21 45L20 45L20 47L19 47L19 49L20 49L20 50L21 50L21 52L22 52L22 53L23 53L23 54L25 54L25 55L26 55L26 56L27 56L27 55L26 55L26 53L27 53L27 54L28 54L28 56L29 56L29 59L30 59L30 56L32 56L32 55L33 55L33 54L32 54L32 52L33 52L33 53L34 53L34 52L38 52L38 51L34 51L34 49L33 49L33 48L34 48L34 47L36 47L36 48L35 48L35 49L36 49L36 48L37 48L37 50L38 50L38 49L40 49L40 50L41 50L41 51L42 51L42 53L43 53L43 52L45 52L45 53L46 53L46 52L45 52L45 51L46 51L46 50L47 50L47 51L48 51L48 50L47 50L47 49L48 49L48 47L49 47L49 48L50 48L50 49L53 49L53 50L52 50L52 53L49 53L49 52L51 52L51 50L49 50L49 52L47 52L47 54L46 54L46 56L47 56L47 55L48 55L48 57L49 57L49 58L48 58L48 59L49 59L49 58L51 58L51 56L53 56L53 59L54 59L54 60L55 60L55 61L54 61L54 62L55 62L55 61L56 61L56 60L55 60L55 59L56 59L56 58L55 58L55 59L54 59L54 57L55 57L55 56L61 56L61 55L60 55L60 54L61 54L61 53L60 53L60 52L61 52L61 51L60 51L60 50L62 50L62 49L63 49L63 47L60 47L60 46L58 46L58 43L59 43L59 42L58 42L58 43L57 43L57 44L56 44L56 45L55 45L55 43L56 43L56 42L57 42L57 41L56 41L56 39L58 39L58 38L56 38L56 37L58 37L58 36L59 36L59 37L60 37L60 38L59 38L59 39L60 39L60 44L59 44L59 45L61 45L61 46L63 46L63 44L62 44L62 45L61 45L61 43L62 43L62 42L63 42L63 41L62 41L62 40L63 40L63 38L62 38L62 37L63 37L63 35L60 35L60 36L59 36L59 35L58 35L58 36L55 36L55 35L56 35L56 30L58 30L58 29L59 29L59 30L61 30L61 28L60 28L60 27L59 27L59 28L58 28L58 26L59 26L59 24L58 24L58 23L56 23L56 24L57 24L57 25L58 25L58 26L55 26L55 25L53 25L53 24L51 24L51 23L52 23L52 22L53 22L53 21L52 21L52 22L51 22L51 20L50 20L50 22L51 22L51 23L49 23L49 22L48 22L48 23L47 23L47 20L44 20L44 19L48 19L48 21L49 21L49 19L48 19L48 18L50 18L50 19L51 19L51 18L52 18L52 20L54 20L54 21L55 21L55 20L58 20L58 19L60 19L60 22L61 22L61 19L62 19L62 18L63 18L63 17L62 17L62 16L59 16L59 18L58 18L58 19L57 19L57 17L56 17L56 15L57 15L57 14L58 14L58 15L59 15L59 14L60 14L60 13L58 13L58 12L57 12L57 14L56 14L56 11L55 11L55 10L54 10L54 9L51 9L51 8L53 8L53 7L52 7L52 6L51 6L51 5L49 5L49 4L50 4L50 3L51 3L51 2L50 2L50 1ZM19 2L19 3L21 3L21 2ZM10 3L10 4L9 4L9 5L10 5L10 4L11 4L11 5L12 5L12 6L11 6L11 7L10 7L10 6L9 6L9 8L10 8L10 9L11 9L11 7L12 7L12 6L13 6L13 7L14 7L14 4L11 4L11 3ZM31 3L31 4L33 4L33 3ZM34 3L34 4L35 4L35 5L37 5L37 3L36 3L36 4L35 4L35 3ZM31 5L31 8L34 8L34 5ZM15 6L15 7L16 7L16 6ZM18 6L18 7L19 7L19 6ZM32 6L32 7L33 7L33 6ZM42 6L42 7L43 7L43 6ZM48 6L48 7L49 7L49 10L50 10L50 13L49 13L49 14L48 14L48 15L47 15L47 14L46 14L46 12L45 12L45 13L44 13L44 14L43 14L43 15L44 15L44 14L46 14L46 15L45 15L45 16L43 16L43 17L42 17L42 20L43 20L43 19L44 19L44 18L43 18L43 17L46 17L46 18L47 18L47 17L48 17L48 15L49 15L49 16L50 16L50 17L52 17L52 14L53 14L53 18L54 18L54 20L55 20L55 19L56 19L56 18L54 18L54 16L55 16L55 14L54 14L54 13L55 13L55 12L54 12L54 13L51 13L51 10L50 10L50 8L51 8L51 6L50 6L50 7L49 7L49 6ZM25 9L25 11L23 11L23 14L24 14L24 15L26 15L26 18L25 18L25 17L24 17L24 18L25 18L25 19L26 19L26 20L27 20L27 21L26 21L26 23L25 23L25 24L26 24L26 25L25 25L25 27L26 27L26 26L27 26L27 27L28 27L28 28L26 28L26 29L28 29L28 30L26 30L26 31L23 31L23 32L24 32L24 33L25 33L25 34L27 34L27 35L28 35L28 33L29 33L29 34L30 34L30 35L33 35L33 37L32 37L32 38L30 38L30 40L28 40L28 39L27 39L27 38L26 38L26 39L27 39L27 40L28 40L28 41L29 41L29 42L27 42L27 43L26 43L26 45L24 45L24 46L26 46L26 48L25 48L25 50L24 50L24 51L27 51L27 53L28 53L28 54L30 54L30 55L29 55L29 56L30 56L30 55L32 55L32 54L31 54L31 53L28 53L28 50L29 50L29 49L30 49L30 48L31 48L31 46L30 46L30 43L31 43L31 42L32 42L32 41L34 41L34 40L35 40L35 43L33 43L33 44L31 44L31 45L35 45L35 46L38 46L38 45L39 45L39 46L40 46L40 45L41 45L41 46L42 46L42 47L40 47L40 48L42 48L42 47L43 47L43 46L44 46L44 47L45 47L45 48L46 48L46 47L45 47L45 46L44 46L44 45L42 45L42 40L40 40L40 41L39 41L39 42L37 42L37 43L36 43L36 40L37 40L37 41L38 41L38 39L37 39L37 38L40 38L40 37L41 37L41 38L42 38L42 39L44 39L44 38L45 38L45 40L43 40L43 41L44 41L44 42L45 42L45 43L43 43L43 44L45 44L45 45L48 45L48 46L47 46L47 47L48 47L48 46L50 46L50 47L51 47L51 46L52 46L52 48L54 48L54 49L55 49L55 51L56 51L56 53L55 53L55 52L54 52L54 51L53 51L53 53L52 53L52 54L54 54L54 55L53 55L53 56L54 56L54 55L55 55L55 54L56 54L56 53L59 53L59 52L58 52L58 51L59 51L59 50L57 50L57 49L58 49L58 48L59 48L59 47L58 47L58 46L56 46L56 47L55 47L55 45L54 45L54 43L55 43L55 42L56 42L56 41L55 41L55 42L54 42L54 41L52 41L52 40L51 40L51 39L49 39L49 40L50 40L50 41L52 41L52 43L53 43L53 44L50 44L50 42L49 42L49 41L47 41L47 40L48 40L48 37L49 37L49 38L52 38L52 37L50 37L50 35L51 35L51 34L50 34L50 33L48 33L48 34L50 34L50 35L49 35L49 36L47 36L47 35L46 35L46 34L45 34L45 36L47 36L47 40L46 40L46 38L45 38L45 37L44 37L44 36L43 36L43 35L44 35L44 33L42 33L42 34L41 34L41 33L37 33L37 32L39 32L39 31L40 31L40 30L39 30L39 28L37 28L37 30L36 30L36 31L37 31L37 32L35 32L35 29L34 29L34 28L36 28L36 26L37 26L37 27L38 27L38 26L39 26L39 27L40 27L40 28L41 28L41 31L42 31L42 30L43 30L43 32L45 32L45 31L47 31L47 32L50 32L50 31L51 31L51 32L52 32L52 33L53 33L53 35L52 35L52 36L53 36L53 37L54 37L54 36L53 36L53 35L54 35L54 34L55 34L55 33L53 33L53 32L54 32L54 31L55 31L55 30L54 30L54 27L53 27L53 26L52 26L52 28L50 28L50 26L51 26L51 25L49 25L49 24L46 24L46 23L45 23L45 21L44 21L44 23L45 23L45 25L43 25L43 27L44 27L44 29L46 29L46 30L45 30L45 31L44 31L44 30L43 30L43 28L41 28L41 27L42 27L42 26L41 26L41 27L40 27L40 25L41 25L41 24L40 24L40 22L39 22L39 23L38 23L38 20L37 20L37 21L35 21L35 20L36 20L36 19L35 19L35 20L34 20L34 22L33 22L33 24L32 24L32 22L31 22L31 24L32 24L32 25L30 25L30 24L28 24L28 23L29 23L29 22L30 22L30 21L28 21L28 20L29 20L29 18L27 18L27 17L30 17L30 18L31 18L31 16L32 16L32 15L30 15L30 13L31 13L31 12L29 12L29 11L28 11L28 9L27 9L27 10L26 10L26 9ZM0 10L0 12L1 12L1 10ZM12 10L12 12L11 12L11 11L10 11L10 13L9 13L9 12L8 12L8 13L9 13L9 14L10 14L10 13L13 13L13 10ZM36 10L36 11L35 11L35 13L36 13L36 12L37 12L37 11L38 11L38 13L37 13L37 14L38 14L38 13L40 13L40 12L39 12L39 11L38 11L38 10ZM52 10L52 12L53 12L53 11L54 11L54 10ZM60 10L60 11L59 11L59 12L61 12L61 14L62 14L62 12L63 12L63 11L62 11L62 12L61 12L61 10ZM25 11L25 12L26 12L26 11ZM6 12L6 13L7 13L7 12ZM20 12L20 13L21 13L21 12ZM27 12L27 14L28 14L28 13L29 13L29 12ZM3 13L3 14L4 14L4 13ZM17 13L17 14L18 14L18 13ZM50 13L50 15L51 15L51 13ZM6 14L6 15L7 15L7 14ZM19 15L19 17L18 17L18 18L17 18L17 17L16 17L16 18L17 18L17 19L18 19L18 18L21 18L21 20L22 20L22 18L21 18L21 16L20 16L20 15ZM28 15L28 16L29 16L29 15ZM38 15L38 16L37 16L37 17L38 17L38 18L37 18L37 19L38 19L38 18L39 18L39 20L40 20L40 19L41 19L41 18L39 18L39 17L38 17L38 16L39 16L39 15ZM46 15L46 17L47 17L47 15ZM60 17L60 19L61 19L61 18L62 18L62 17ZM26 18L26 19L27 19L27 20L28 20L28 19L27 19L27 18ZM7 19L7 20L8 20L8 19ZM11 19L11 20L12 20L12 19ZM1 21L1 22L2 22L2 21ZM4 21L4 22L5 22L5 21ZM7 21L7 22L8 22L8 21ZM17 21L17 22L16 22L16 24L18 24L18 23L17 23L17 22L18 22L18 21ZM41 21L41 22L42 22L42 21ZM11 22L11 23L12 23L12 22ZM35 22L35 23L34 23L34 24L35 24L35 23L36 23L36 22ZM54 22L54 24L55 24L55 22ZM23 23L23 25L24 25L24 23ZM42 23L42 24L43 24L43 23ZM6 24L6 25L7 25L7 24ZM37 24L37 25L39 25L39 24ZM9 25L9 26L10 26L10 25ZM27 25L27 26L28 26L28 27L29 27L29 26L30 26L30 25ZM34 25L34 26L32 26L32 28L34 28L34 26L35 26L35 25ZM46 25L46 26L47 26L47 27L46 27L46 29L47 29L47 30L48 30L48 31L50 31L50 30L51 30L51 31L52 31L52 32L53 32L53 31L54 31L54 30L52 30L52 29L53 29L53 28L52 28L52 29L50 29L50 30L48 30L48 26L49 26L49 25ZM44 26L44 27L45 27L45 26ZM22 27L22 29L23 29L23 27ZM30 27L30 28L29 28L29 29L31 29L31 27ZM0 28L0 29L1 29L1 28ZM18 28L18 29L19 29L19 28ZM55 28L55 29L58 29L58 28ZM32 29L32 30L34 30L34 29ZM28 30L28 31L26 31L26 32L25 32L25 33L26 33L26 32L27 32L27 33L28 33L28 31L29 31L29 32L30 32L30 31L29 31L29 30ZM37 30L37 31L38 31L38 30ZM0 31L0 32L1 32L1 31ZM5 31L5 34L8 34L8 31ZM19 31L19 32L20 32L20 31ZM31 31L31 34L34 34L34 31ZM57 31L57 34L60 34L60 31ZM61 31L61 34L62 34L62 31ZM6 32L6 33L7 33L7 32ZM32 32L32 33L33 33L33 32ZM58 32L58 33L59 33L59 32ZM12 33L12 34L13 34L13 33ZM35 33L35 34L36 34L36 35L34 35L34 37L33 37L33 38L32 38L32 40L31 40L31 41L32 41L32 40L34 40L34 39L35 39L35 38L37 38L37 37L38 37L38 36L39 36L39 37L40 37L40 36L42 36L42 38L43 38L43 36L42 36L42 35L43 35L43 34L42 34L42 35L41 35L41 34L38 34L38 35L37 35L37 34L36 34L36 33ZM6 35L6 36L8 36L8 37L9 37L9 36L8 36L8 35ZM11 35L11 36L12 36L12 35ZM35 36L35 37L36 37L36 36ZM19 37L19 39L18 39L18 41L19 41L19 40L20 40L20 38L21 38L21 39L22 39L22 37ZM6 38L6 39L7 39L7 38ZM33 38L33 39L34 39L34 38ZM55 38L55 39L56 39L56 38ZM60 38L60 39L61 39L61 40L62 40L62 39L61 39L61 38ZM24 39L24 40L25 40L25 41L26 41L26 40L25 40L25 39ZM53 39L53 40L54 40L54 39ZM58 40L58 41L59 41L59 40ZM2 41L2 43L1 43L1 44L2 44L2 43L4 43L4 42L3 42L3 41ZM5 41L5 42L7 42L7 43L6 43L6 44L5 44L5 45L6 45L6 46L8 46L8 45L6 45L6 44L9 44L9 43L10 43L10 42L11 42L11 41L8 41L8 42L7 42L7 41ZM22 41L22 42L23 42L23 41ZM61 41L61 42L62 42L62 41ZM24 42L24 44L25 44L25 42ZM29 42L29 43L30 43L30 42ZM39 42L39 43L37 43L37 44L39 44L39 45L40 45L40 44L41 44L41 43L40 43L40 42ZM46 42L46 43L45 43L45 44L47 44L47 42ZM53 42L53 43L54 43L54 42ZM13 43L13 44L14 44L14 43ZM27 43L27 44L28 44L28 45L29 45L29 44L28 44L28 43ZM39 43L39 44L40 44L40 43ZM48 43L48 45L49 45L49 43ZM35 44L35 45L36 45L36 44ZM50 45L50 46L51 46L51 45ZM52 45L52 46L53 46L53 47L54 47L54 46L53 46L53 45ZM9 46L9 47L5 47L5 48L8 48L8 51L9 51L9 50L10 50L10 49L11 49L11 48L9 48L9 47L10 47L10 46ZM32 46L32 48L33 48L33 46ZM20 47L20 48L21 48L21 47ZM29 47L29 48L30 48L30 47ZM38 47L38 48L39 48L39 47ZM23 48L23 49L24 49L24 48ZM43 48L43 49L44 49L44 48ZM55 48L55 49L57 49L57 48ZM60 48L60 49L62 49L62 48ZM6 49L6 50L7 50L7 49ZM21 49L21 50L22 50L22 52L23 52L23 53L25 53L25 52L23 52L23 50L22 50L22 49ZM26 49L26 50L27 50L27 49ZM32 49L32 50L30 50L30 51L31 51L31 52L32 52L32 51L33 51L33 49ZM45 49L45 50L42 50L42 51L45 51L45 50L46 50L46 49ZM56 50L56 51L57 51L57 50ZM18 51L18 52L19 52L19 53L20 53L20 52L19 52L19 51ZM62 51L62 52L63 52L63 51ZM7 52L7 53L6 53L6 54L7 54L7 53L9 53L9 52ZM10 53L10 55L11 55L11 56L10 56L10 59L11 59L11 60L13 60L13 61L14 61L14 60L16 60L16 59L13 59L13 58L12 58L12 59L11 59L11 56L12 56L12 57L13 57L13 56L12 56L12 55L11 55L11 53ZM48 53L48 55L49 55L49 53ZM8 54L8 55L9 55L9 54ZM50 55L50 56L51 56L51 55ZM6 56L6 57L7 57L7 56ZM21 57L21 58L22 58L22 59L20 59L20 58L18 58L18 59L17 59L17 60L18 60L18 59L20 59L20 60L23 60L23 61L24 61L24 60L23 60L23 59L24 59L24 58L22 58L22 57ZM31 57L31 60L34 60L34 57ZM41 57L41 58L42 58L42 59L43 59L43 58L42 58L42 57ZM57 57L57 60L60 60L60 57ZM61 57L61 58L62 58L62 57ZM32 58L32 59L33 59L33 58ZM58 58L58 59L59 59L59 58ZM50 59L50 60L51 60L51 59ZM11 61L11 62L12 62L12 61ZM21 61L21 62L19 62L19 63L23 63L23 64L25 64L25 63L24 63L24 62L22 62L22 61ZM31 62L31 63L30 63L30 64L31 64L31 63L33 63L33 64L34 64L34 63L33 63L33 62ZM40 62L40 63L42 63L42 62ZM64 62L64 63L63 63L63 64L62 64L62 63L59 63L59 65L60 65L60 64L62 64L62 65L64 65L64 63L65 63L65 62ZM13 63L13 64L14 64L14 63ZM35 63L35 64L36 64L36 63ZM16 64L16 65L17 65L17 64ZM27 64L27 65L28 65L28 64ZM51 64L51 65L52 65L52 64ZM56 64L56 65L57 65L57 64ZM0 0L0 7L7 7L7 0ZM1 1L1 6L6 6L6 1ZM2 2L2 5L5 5L5 2ZM58 0L58 7L65 7L65 0ZM59 1L59 6L64 6L64 1ZM60 2L60 5L63 5L63 2ZM0 58L0 65L7 65L7 58ZM1 59L1 64L6 64L6 59ZM2 60L2 63L5 63L5 60Z" fill="#000000"/></g></g></svg>
